<?xml version="1.0" encoding="UTF-8" standalone="no"?>
<!-- Created with Inkscape (http://www.inkscape.org/) -->

<svg
   xmlns:dc="http://purl.org/dc/elements/1.1/"
   xmlns:cc="http://creativecommons.org/ns#"
   xmlns:rdf="http://www.w3.org/1999/02/22-rdf-syntax-ns#"
   xmlns:svg="http://www.w3.org/2000/svg"
   xmlns="http://www.w3.org/2000/svg"
   xmlns:sodipodi="http://sodipodi.sourceforge.net/DTD/sodipodi-0.dtd"
   xmlns:inkscape="http://www.inkscape.org/namespaces/inkscape"
   width="48"
   height="48"
   viewBox="0 0 12.7 12.7"
   version="1.1"
   id="svg8"
   inkscape:version="0.92.0 r15299"
   sodipodi:docname="deepwaterLogo.svg"
   inkscape:export-filename="D:\quake\deepwater\deepwaterLogo.png"
   inkscape:export-xdpi="1024"
   inkscape:export-ydpi="1024">
  <defs
     id="defs2" />
  <sodipodi:namedview
     id="base"
     pagecolor="#ffffff"
     bordercolor="#666666"
     borderopacity="1.0"
     inkscape:pageopacity="0.0"
     inkscape:pageshadow="2"
     inkscape:zoom="15.839192"
     inkscape:cx="31.462697"
     inkscape:cy="22.156478"
     inkscape:document-units="mm"
     inkscape:current-layer="layer1"
     showgrid="false"
     units="px"
     inkscape:pagecheckerboard="true"
     inkscape:window-width="1920"
     inkscape:window-height="1017"
     inkscape:window-x="-8"
     inkscape:window-y="-8"
     inkscape:window-maximized="1" />
  <metadata
     id="metadata5">
    <rdf:RDF>
      <cc:Work
         rdf:about="">
        <dc:format>image/svg+xml</dc:format>
        <dc:type
           rdf:resource="http://purl.org/dc/dcmitype/StillImage" />
        <dc:title />
      </cc:Work>
    </rdf:RDF>
  </metadata>
  <g
     inkscape:label="Layer 1"
     inkscape:groupmode="layer"
     id="layer1"
     transform="translate(0,-284.3)">
    <text
       xml:space="preserve"
       style="font-style:normal;font-variant:normal;font-weight:normal;font-stretch:condensed;font-size:2.82222223px;line-height:6.61458302px;font-family:Impact;-inkscape-font-specification:'Impact, Condensed';font-variant-ligatures:normal;font-variant-caps:normal;font-variant-numeric:normal;font-feature-settings:normal;text-align:start;letter-spacing:0px;word-spacing:0px;writing-mode:lr-tb;text-anchor:start;fill:#000099;fill-opacity:1;stroke:#3a3a3a;stroke-width:0.05;stroke-miterlimit:4;stroke-dasharray:none;stroke-opacity:1;"
       x="-0.08819446"
       y="291.76553"
       id="text4502"><tspan
         sodipodi:role="line"
         id="tspan4500"
         x="-0.08819446"
         y="291.76553"
         style="font-style:normal;font-variant:normal;font-weight:normal;font-stretch:condensed;font-size:2.82222223px;font-family:Impact;-inkscape-font-specification:'Impact, Condensed';font-variant-ligatures:normal;font-variant-caps:normal;font-variant-numeric:normal;font-feature-settings:normal;text-align:start;writing-mode:lr-tb;text-anchor:start;fill:#000099;fill-opacity:1;stroke:#3a3a3a;stroke-width:0.05;stroke-miterlimit:4;stroke-dasharray:none;stroke-opacity:1;">DEEPWATER</tspan></text>
  </g>
  <g
     inkscape:groupmode="layer"
     id="layer2"
     inkscape:label="diver">
    <path
       style="fill:#aaaaaa;fill-opacity:1;stroke:none;stroke-width:0.26458332px;stroke-linecap:butt;stroke-linejoin:miter;stroke-opacity:1"
       d="M 4.2429044,7.0536255 C 4.1455674,7.1509626 3.7964679,7.0966436 3.6499001,7.1454995 3.3259117,7.2534955 3.2645483,7.2571805 3.1541593,7.4434979 2.8867947,7.5326199 2.202157,7.3404167 2.0295785,7.512993 c -0.06717,0.06717 0.091885,0.1085892 0.1085783,0.1252826 0.2077963,0.014379 1.1502146,0.071122 1.2753627,0.1807515 0.018657,0.011509 0.112164,0.051129 0.1521935,-0.058056 0.012642,-0.034482 0.315697,0.062887 0.424051,0.079442 0.108354,0.016555 0.2216309,-0.024834 0.2812813,0.052768 0.02931,0.03813 0.087528,0.1222133 0.1284367,0.1631219 C 4.474741,8.131562 4.7973341,8.07153 4.8693173,8.064233 4.9567333,8.055373 5.0996607,8.041791 5.2707439,8.023467 5.4418272,8.005143 5.7175026,7.8598994 5.911975,7.9143949 c 0.1483619,0.041574 0.3211467,-0.061872 0.4954277,-0.099219 0.1742809,-0.037347 0.3308639,-0.038124 0.424675,-0.08503 0.1719804,-0.08599 0.5256154,0.108895 0.7197199,0.1228799 0.2151753,0.015503 0.5637422,0.00748 1.0855603,0.03441 0.1739842,0.00898 0.092244,-0.1039808 0.2612238,-0.071065 0.149176,0.029059 0.5862408,-0.063581 1.2326043,-0.1279859 0.419301,0.047145 1.362251,0.00442 1.539594,-0.013375 0.06671,-0.00669 0.302596,-0.02861 0.242329,-0.088878 C 11.904409,7.4028999 11.47786,7.5184579 11.085908,7.473819 10.712089,7.431245 10.305614,7.3117869 10.239765,7.387713 10.194315,7.410435 9.9229055,7.5226156 9.8404857,7.440196 9.7439537,7.468359 9.50152,7.362657 9.4296034,7.362657 9.3815444,7.362657 8.8839565,7.339482 8.8648745,7.301323 8.9284422,7.2660468 9.7489599,7.0216771 9.8096034,6.9610336 10.029284,6.8490118 10.474249,6.7144863 10.674078,6.7028351 10.885948,6.6904821 11.140061,6.6517511 11.30049,6.552496 11.31484,6.543616 11.32775,6.3713618 10.690782,6.510735 10.483761,6.556032 9.7893252,6.722912 9.5868618,6.722912 9.1537619,6.722912 8.1724333,7.2951278 7.7245011,7.2441628 7.4798381,7.2163254 7.1645801,7.0558822 6.9323037,6.9784569 6.7255402,7.0063349 6.6160648,7.0161555 6.4729344,6.978457 6.2703954,6.6372612 6.4169202,6.7683441 5.9773771,6.6807316 c -0.060972,-0.012153 -0.08034,0.030603 -0.1531545,0.021978 0,0 -1.3263607,0.047652 -1.5429536,0.2315204 0,0 -0.03251,0.1011744 -0.038365,0.1193955 z"
       id="path4761"
       inkscape:connector-curvature="0"
       sodipodi:nodetypes="csccccsssssssssssscscsccsccsssssccsccc" />
    <g
       style="stroke:#000000;stroke-width:0.20594268;stroke-opacity:1;fill:#000000;fill-opacity:1;stroke-miterlimit:4;stroke-dasharray:none"
       id="#1f120dff"
       transform="matrix(0.01942288,0,0,0.01942288,-2.1587753,-1.1909434)">
      <path
         d="m 669.9,394.48 c 4.72,-0.45 9.36,-1.54 14.09,-1.94 3.84,-0.36 7.11,2.07 10.03,4.22 1.19,-0.04 2.39,-0.09 3.59,-0.13 -0.01,0.82 -0.01,1.64 -0.01,2.47 -10.04,3.42 -19.72,8.26 -30.41,9.42 -4.93,0.66 -9.87,1.25 -14.72,2.34 0.24,-0.43 0.73,-1.31 0.97,-1.74 3.73,-0.85 7.55,-1.22 11.37,-1.46 -1.08,-0.52 -2.14,-1.04 -3.2,-1.56 3.01,0.14 6.02,0.43 9.02,0.76 0.44,-1.07 0.89,-2.14 1.34,-3.21 -2.77,-0.13 -5.58,-0.26 -8.18,-1.3 6.02,0.6 12.19,0.45 18.11,-0.88 2.54,-1.21 5.01,-2.67 7.84,-3.13 -0.07,-0.4 -0.2,-1.21 -0.27,-1.61 -1.96,-1.38 -4,-3.13 -6.57,-2.57 -9.1,1.03 -18.27,2.3 -27.11,4.76 l -0.87,1.33 c 0.85,0.23 2.55,0.68 3.4,0.9 -1.66,-0.07 -3.32,-0.23 -4.86,-0.82 0.3,-0.52 0.92,-1.55 1.22,-2.07 -4.98,0 -10.43,0.8 -14.91,-1.88 3.75,0.41 7.52,0.63 11.28,1.05 6.39,-0.16 12.51,-2.31 18.85,-2.95 z"
         id="path2605"
         inkscape:connector-curvature="0"
         style="fill:#000000;stroke:#000000;stroke-width:0.20594268;stroke-opacity:1;fill-opacity:1;stroke-miterlimit:4;stroke-dasharray:none" />
    </g>
    <g
       style="stroke:#000000;stroke-width:0.20594268;stroke-opacity:1;fill:#000000;fill-opacity:1;stroke-miterlimit:4;stroke-dasharray:none"
       id="#070507ff"
       transform="matrix(0.01942288,0,0,0.01942288,-2.1587753,-1.1909434)">
      <path
         d="m 621.59,396.88 c 1.03,-2.9 4.44,-4 7.25,-3.36 3.67,0.8 7.34,1.71 10.93,2.86 4.48,2.68 9.93,1.88 14.91,1.88 -0.3,0.52 -0.92,1.55 -1.22,2.07 1.54,0.59 3.2,0.75 4.86,0.82 1.85,0.23 3.67,0.65 5.47,1.2 2.6,1.04 5.41,1.17 8.18,1.3 -0.45,1.07 -0.9,2.14 -1.34,3.21 -3,-0.33 -6.01,-0.62 -9.02,-0.76 1.06,0.52 2.12,1.04 3.2,1.56 -3.82,0.24 -7.64,0.61 -11.37,1.46 -0.24,0.43 -0.73,1.31 -0.97,1.74 -3.57,0.81 -7.14,1.65 -10.58,2.89 -0.77,-1.16 -1.54,-2.33 -2.28,-3.49 -0.97,0.52 -1.93,1.05 -2.88,1.58 -0.97,-0.34 -1.92,-0.71 -2.86,-1.08 -2.13,-1.55 -4.34,-3 -6.71,-4.14 -0.94,-2.08 -2.45,-3.8 -4.7,-4.39 -0.24,-1.79 -0.58,-3.57 -0.87,-5.35 m 15.62,10.47 c -1.24,0.38 -1.92,2.19 -1.03,3.21 1.95,1.05 3.68,-3.43 1.03,-3.21 z"
         id="path2608"
         inkscape:connector-curvature="0"
         style="fill:#000000;stroke:#000000;stroke-width:0.20594268;stroke-opacity:1;fill-opacity:1;stroke-miterlimit:4;stroke-dasharray:none" />
    </g>
    <g
       style="stroke:#000000;stroke-width:0.20594268;stroke-opacity:1;fill:#000000;fill-opacity:1;stroke-miterlimit:4;stroke-dasharray:none"
       id="#241608ff"
       transform="matrix(0.01942288,0,0,0.01942288,-2.1587753,-1.1909434)">
      <path
         d="m 621.59,396.88 c 0.29,1.78 0.63,3.56 0.87,5.35 2.25,0.59 3.76,2.31 4.7,4.39 -5.47,-2.41 -10.66,1.35 -16.1,1.68 -8.41,0.64 -16.92,1.51 -24.94,4.27 -1.69,0.51 -3.38,1.8 -3.34,3.74 -1.33,-1.68 -2.62,-3.38 -3.97,-5.03 6.16,-2.52 12.81,-3.09 19.26,-4.46 3.91,-0.97 7.96,0.26 11.87,-0.74 2.85,-0.58 6.26,-0.19 8.43,-2.55 1.34,-2.08 2.17,-4.43 3.22,-6.65 z"
         id="path2632"
         inkscape:connector-curvature="0"
         style="fill:#000000;stroke:#000000;stroke-width:0.20594268;stroke-opacity:1;fill-opacity:1;stroke-miterlimit:4;stroke-dasharray:none" />
    </g>
    <g
       style="stroke:#000000;stroke-width:0.20594268;stroke-opacity:1;fill:#000000;fill-opacity:1;stroke-miterlimit:4;stroke-dasharray:none"
       id="#120d0cff"
       transform="matrix(0.01942288,0,0,0.01942288,-2.1587753,-1.1909434)">
      <path
         d="m 416.27,404.25 c 3.86,0.21 7.89,-0.47 11.59,0.99 1.39,0.75 2.81,-0.09 4.18,-0.47 2.93,0.81 6.62,0.84 8.51,3.6 2.79,3.32 4.39,7.4 5.85,11.43 2.06,-0.04 4.13,-0.13 6.19,-0.32 0.7,1.71 1.23,3.5 1.59,5.33 -1.64,0.21 -3.27,0.43 -4.9,0.64 -0.1,3.39 0.31,6.91 -1,10.12 -1.18,-0.41 -2.38,-1.06 -3.64,-0.57 0.3,-2.71 0.81,-5.43 0.55,-8.16 -1.88,-7.23 -4.29,-15.17 -11.02,-19.36 -2.52,-0.47 -2.77,2.71 -1.57,4.18 1.94,3.94 5.68,7.54 4.92,12.3 -0.99,4.42 -2.62,8.68 -4.08,12.97 -1.05,-0.55 -2.1,-1.1 -3.15,-1.64 -0.1,0.62 -0.32,1.85 -0.43,2.47 -0.66,-0.29 -1.99,-0.86 -2.66,-1.14 4.76,-9.04 4.04,-20.75 -1.87,-29.1 -2.58,-0.8 -5.27,-1.01 -7.95,-1.07 -2.08,3.21 0.54,6.53 1.72,9.54 1.59,2.95 1.81,6.33 1.81,9.62 -1.29,0.66 -3.51,0.5 -3.66,2.38 -1,2.33 0.94,4.32 2.11,6.14 -0.01,0.81 -0.03,2.43 -0.03,3.25 -0.01,0.29 -0.02,0.88 -0.02,1.17 2.49,0.02 5.04,-0.03 7.43,0.83 -6.2,-0.09 -12.43,-0.21 -18.57,0.78 -7.15,0.23 -14.4,0.41 -21.41,1.9 -1.36,0.27 -2.74,0.53 -4.08,0.87 1.17,-0.83 2.42,-1.58 3.39,-2.66 1.04,-2.29 2.12,-4.63 2.32,-7.17 0.52,-5.59 1.12,-11.5 -1.01,-16.84 0.66,-0.44 2,-1.32 2.66,-1.76 3.51,0.28 7.05,0.85 10.57,0.38 4.34,-0.52 8.82,-0.08 12.99,-1.62 -0.28,-1.51 -0.69,-2.98 -1.36,-4.35 -0.41,-0.84 -0.82,-1.67 -1.23,-2.5 2.04,0.19 3.65,-1.11 5.26,-2.16 m -22.74,13.39 c -0.79,2.07 -0.18,4.15 1.12,5.87 5.47,0.41 10.96,0.03 16.45,0.11 1.85,0.1 3.62,-0.46 5.27,-1.26 -0.07,-1.91 0.91,-4.6 -1.25,-5.67 -4.07,-0.46 -8.08,0.8 -12.15,0.61 -3.16,-0.07 -6.3,0.09 -9.44,0.34 m 4.01,15.94 c 1.04,0.03 2.1,0.06 3.15,0.08 -0.01,-1.78 -0.85,-3.27 -2.21,-4.37 -0.68,1.34 -0.89,2.8 -0.94,4.29 z"
         id="path2671"
         inkscape:connector-curvature="0"
         style="fill:#000000;stroke:#000000;stroke-width:0.20594268;stroke-opacity:1;fill-opacity:1;stroke-miterlimit:4;stroke-dasharray:none" />
    </g>
    <g
       style="stroke:#000000;stroke-width:0.20594268;stroke-opacity:1;fill:#000000;fill-opacity:1;stroke-miterlimit:4;stroke-dasharray:none"
       id="#241d19ff"
       transform="matrix(0.01942288,0,0,0.01942288,-2.1587753,-1.1909434)">
      <path
         d="m 637.21,407.35 c 2.65,-0.22 0.92,4.26 -1.03,3.21 -0.89,-1.02 -0.21,-2.83 1.03,-3.21 z"
         id="path2679"
         inkscape:connector-curvature="0"
         style="fill:#000000;stroke:#000000;stroke-width:0.20594268;stroke-opacity:1;fill-opacity:1;stroke-miterlimit:4;stroke-dasharray:none" />
    </g>
    <g
       style="stroke:#000000;stroke-width:0.20594268;stroke-opacity:1;fill:#000000;fill-opacity:1;stroke-miterlimit:4;stroke-dasharray:none"
       id="#1b0f05ff"
       transform="matrix(0.01942288,0,0,0.01942288,-2.1587753,-1.1909434)">
      <path
         d="m 636.73,411.84 c 0.95,-0.53 1.91,-1.06 2.88,-1.58 0.74,1.16 1.51,2.33 2.28,3.49 -8.39,2.69 -17.25,3.43 -25.69,5.96 -0.12,-0.62 -0.38,-1.86 -0.51,-2.48 5.98,-0.95 11.76,-2.77 17.68,-4.03 0.12,-0.61 0.37,-1.83 0.5,-2.44 0.94,0.37 1.89,0.74 2.86,1.08 z"
         id="path2691"
         inkscape:connector-curvature="0"
         style="fill:#000000;stroke:#000000;stroke-width:0.20594268;stroke-opacity:1;fill-opacity:1;stroke-miterlimit:4;stroke-dasharray:none" />
    </g>
    <g
       style="stroke:none;stroke-width:3.9007678;stroke-opacity:1"
       id="#050505ff"
       transform="matrix(0.01942288,0,0,0.01942288,-2.1587753,-1.1909434)">
      <path
         d="m 553.07,422.19 c 8.43,-3.99 16.84,-8.05 25.74,-10.91 1.35,1.65 2.64,3.35 3.97,5.03 2.16,1.55 4.88,0.85 7.32,0.61 10.31,-1.45 20.59,-3.22 30.76,-5.51 -0.93,3.27 -5.17,3.07 -7.81,4.27 -7.5,2.02 -14.59,5.22 -21.91,7.77 0.13,0.46 0.39,1.38 0.51,1.85 0.5,0.11 1.49,0.33 1.99,0.44 -2.44,2.11 -5.72,2.41 -8.72,3.13 -0.49,-0.38 -1.46,-1.14 -1.95,-1.52 0.33,1.21 0.81,2.37 1.56,3.4 -4.53,-0.99 -9.09,0.87 -11.76,4.62 -1.78,0.5 -3.52,1.12 -5.21,1.86 -4.03,1.31 -8.13,2.4 -12.29,3.17 1.02,0.63 2.05,1.27 3.08,1.92 -1.41,0.75 -3.33,1.38 -3.4,3.35 2.67,0.04 5.37,0 8.02,-0.43 7.64,-1.31 15.51,-1.14 23.15,0.11 -1.26,0.55 -2.5,1.13 -3.73,1.72 2.42,0.63 4.88,1.27 7.11,2.46 -0.54,0.11 -1.61,0.32 -2.15,0.43 1.5,2.75 2.29,5.79 3.07,8.8 -4.21,0.92 -8.4,2.04 -12.37,3.73 -2.81,1.17 -5.75,1.99 -8.77,2.28 -0.57,-0.43 -1.13,-0.85 -1.68,-1.26 -1.57,1.43 -3.68,1.28 -5.64,1.22 1.4,-0.32 2.82,-0.63 4.24,-0.94 -4.91,-4.67 -11.82,-2.79 -17.8,-3.76 -4.86,1.57 -10.04,0.63 -15.03,1.36 -0.28,-0.65 -0.55,-1.3 -0.81,-1.94 -1.56,0.85 -3.13,1.69 -4.77,2.36 -2.72,1.29 -6.17,0.03 -8.41,2.46 -3.01,0.14 -6.04,0.19 -8.99,-0.45 -2.04,-0.32 -4.45,-0.76 -6.11,0.78 -0.24,0.48 -0.71,1.43 -0.95,1.91 -3.34,-0.76 -6.63,-1.74 -9.71,-3.21 1.26,-3.22 4.07,-7.74 0.42,-10.44 -4.22,-0.41 -8.27,-1.7 -12.34,-2.8 -7,-3.33 -15.36,-2.74 -22.63,-0.55 -3.72,1.18 -7.42,-0.65 -11.04,-1.36 -3.12,-0.93 -6.85,-0.84 -9.09,-3.56 -0.41,0.32 -1.23,0.95 -1.64,1.26 -4.61,-0.17 -9.24,-0.79 -13.82,-0.01 -2.33,-0.04 -4.66,-0.11 -6.98,-0.28 -2.82,-1.59 -7.54,0.63 -8.93,-2.85 6.06,-0.36 12.14,-0.4 18.18,-1.15 0.24,-0.54 0.74,-1.64 0.99,-2.18 -2.39,-0.86 -4.94,-0.81 -7.43,-0.83 0,-0.29 0.01,-0.88 0.02,-1.17 2.62,-0.21 5.24,-0.59 7.87,-0.76 0.67,0.28 2,0.85 2.66,1.14 0.11,-0.62 0.33,-1.85 0.43,-2.47 1.05,0.54 2.1,1.09 3.15,1.64 0.17,0.38 0.5,1.13 0.67,1.51 l 1.85,-1.22 c 0.17,0.67 0.52,2.01 0.69,2.69 -1.09,-0.14 -3.27,-0.4 -4.35,-0.53 0.05,0.55 0.16,1.65 0.21,2.2 2.16,-0.28 4.23,0.29 6.27,0.77 1.24,-1.25 0,-2.61 -0.64,-3.77 2.79,0.22 4.95,-1.5 6.5,-3.58 1.26,-0.49 2.46,0.16 3.64,0.57 1.31,-3.21 0.9,-6.73 1,-10.12 1.63,-0.21 3.26,-0.43 4.9,-0.64 -0.36,-1.83 -0.89,-3.62 -1.59,-5.33 l 0.51,-0.61 c 5.6,-0.53 11.37,-1.14 16.89,0.34 6.51,1.47 12.56,4.55 17.79,8.68 10.25,-2.59 20.77,-3.76 31.23,-5.19 9.32,-0.51 18.76,-2.05 28.06,-0.35 1.97,0.2 4.14,0.88 6,-0.16 m -88.89,-0.94 c 0.2,0.96 0.42,1.93 0.64,2.91 5.42,0.27 9.98,3.62 13.7,7.3 1.94,1.96 4.71,2.33 7.35,2.3 -0.07,-1.14 -0.13,-2.26 -0.19,-3.39 -0.98,-0.69 -1.95,-1.37 -2.91,-2.06 -2.24,-1.5 -4.5,-2.99 -6.96,-4.1 -3.45,-2.37 -7.5,-3.19 -11.63,-2.96 m 29,14.89 c 3.39,1.67 7.2,1.43 10.83,2.09 9.68,1.23 19.32,2.71 28.95,4.33 1.5,-0.07 2.35,1.25 2.57,2.63 0.01,-0.5 0.03,-1.5 0.04,-1.99 4.41,1.03 8.76,3.17 13.39,2.2 0.45,-2.17 -1.06,-3.07 -2.88,-3.5 0.3,-2.6 -2.12,-4.06 -4.18,-4.85 -3.44,-0.83 -7.43,0.91 -10.33,-1.71 -1,0.79 -2.01,1.57 -2.98,2.38 -10.81,-1.74 -21.73,-3.72 -32.72,-2.92 -0.95,0.36 -1.81,0.86 -2.69,1.34 z"
         id="path2694"
         inkscape:connector-curvature="0"
         style="fill:#050505;stroke:none;stroke-width:3.9007678;stroke-opacity:1" />
    </g>
    <g
       style="stroke:#000000;stroke-width:0.20594268;stroke-opacity:1;fill:#000000;fill-opacity:1;stroke-miterlimit:4;stroke-dasharray:none"
       id="#0c0707ff"
       transform="matrix(0.01942288,0,0,0.01942288,-2.1587753,-1.1909434)">
      <path
         d="m 379.68,432.27016 c 2.13,0.03 8.51695,1.60238 10.64695,1.46238 -0.69362,1.00551 -3.75583,7.63413 -7.64695,9.19746 -0.43,0.36 -1.31,1.06 -1.74,1.42 6.4,0.61 12.71,-0.92 19.1,-0.9 2.52,-0.05 5.02,-0.43 7.53,-0.74 1.39,3.48 6.11,1.26 8.93,2.85 -5.53,0.25 -11.01,1.46 -16.58,1.1 -5.65,-0.41 -11.35,-0.46 -16.95,0.45 -8.78,1.24 -17.95,2.28 -25.76,6.82 2.05,0.67 4.19,1.16 6.35,0.5 0.08,1.06 0.07,2.12 0.06,3.19 1.75,0.13 3.51,0.19 5.27,0.34 -1.11,-0.57 -4.52,-0.48 -3.66,-2.57 2.08,-2.01 5.16,-1.65 7.78,-2.17 8.54,-1.75 17.35,-2.87 26.06,-1.86 2.01,0.05 3.9,-0.84 5.86,-1.22 2.59,-0.85 5.25,0.12 7.87,0.33 0.38,0.55 1.14,1.65 1.51,2.2 6.09,-0.19 12.2,0.88 18.25,-0.18 3.48,0.24 6.93,0.79 10.37,1.31 3.11,0.6 6.24,1.06 9.31,1.88 3.05,1.2 5.9,-0.95 8.84,-1.5 7.55,-1.68 15.28,-0.06 22.88,0.4 2.82,0.14 5.48,1.15 8.13,2.05 0.35,0.55 1.07,1.64 1.43,2.19 -0.07,1.48 -0.11,2.99 0.1,4.48 3.08,1.47 6.37,2.45 9.71,3.21 0.24,-0.48 0.71,-1.43 0.95,-1.91 4.56,0.59 9.13,1.12 13.74,1.17 3.63,0.5 7.31,0.94 10.96,0.25 7.34,0.24 14.77,-1.09 22.07,0.33 3.36,0.74 6.8,0.22 10.19,-0.1 l -0.17,1.12 c -4.88,1.69 -10.05,1.27 -15.09,0.84 -17.31,0 -34.84,1.47 -51.97,-1.71 -1.31,-0.14 -2.62,-0.15 -3.92,-0.02 -3.7,0.89 -7.53,1.06 -11.21,0.04 -2.98,-1.1 -5.75,0.76 -8.65,1 -6.22,-1.08 -11.83,-4.89 -18.28,-4.74 -4.76,0.3 -9.39,1.55 -13.97,2.8 -5.34,1.5 -10.71,2.87 -16.07,4.29 -3.95,1.12 -7.96,-0.39 -11.94,-0.47 -5.45,-0.47 -10.61,1.67 -15.58,3.59 -0.67,-0.31 -2.01,-0.92 -2.68,-1.23 3.89,-1.45 8,-2.16 11.91,-3.54 5.28,-2.07 10.98,-0.28 16.38,0.08 1.31,-0.41 2.57,-0.96 3.85,-1.48 4.08,0.07 8.05,-0.92 11.82,-2.4 5.41,-2.14 11.26,-2.94 17.05,-2.85 -0.01,-0.51 -0.02,-1.54 -0.02,-2.05 -8.72,-3.91 -18.24,-1.02 -26.71,2.04 -4.47,1.83 -9.35,0.9 -14.03,1.08 -4.59,0.04 -8.65,2.46 -13.03,3.49 -3.67,0.87 -7.32,1.81 -11.03,2.5 -5.23,1.01 -10.59,0.62 -15.84,1.43 -1.75,0.17 -3.5,0.26 -5.25,0.36 0.06,1.53 0.23,3.09 1.06,4.43 -1.92,1.21 -4.22,1.08 -6.39,1.01 1.05,-0.88 2.11,-1.74 3.18,-2.59 -0.2,-0.19 -0.59,-0.58 -0.79,-0.78 -0.49,0.16 -1.48,0.48 -1.97,0.64 -0.39,-0.46 -1.18,-1.39 -1.57,-1.86 -0.85,0.63 -1.71,1.25 -2.55,1.89 -3.1,-3.16 -7.97,-1.26 -11.87,-1.83 -3.75,-0.92 -6.21,-4.18 -7.98,-7.4 -1.96,-1.21 -4.65,-0.52 -6.9,-0.71 0.41,4.27 3.09,7.96 6.15,10.8 6,4 13.56,2.27 20.32,2.48 1.02,0.31 2.04,0.64 3.06,0.98 -6.67,1.84 -13.71,2.79 -20.6,1.78 -4.65,-2.1 -8.4,-6.09 -10.25,-10.85 -0.08,-0.5 -0.24,-1.51 -0.32,-2.01 -0.52,-0.28 -1.54,-0.84 -2.05,-1.12 0.67,-0.97 1.34,-1.94 2.01,-2.9 -1.04,0.02 -2.07,0.07 -3.11,0.06 -3.39,-0.48 -8.3,-2.32 -10.35,1.59 -0.52,0.34 -1.56,1.02 -2.08,1.35 l -0.73,-0.73 c -2.18,-3.21 -6.27,-2.44 -9.54,-3.2 -1.11,-0.73 -1.52,-2.11 -2.26,-3.14 -0.74,-1.99 -3.07,-0.64 -3.33,0.9 -1.07,-1.24 -2.24,-2.38 -3.41,-3.5 0.83,-2.78 -1.24,-4.86 -2.68,-6.95 -1.48,-0.66 -2.94,-1.32 -4.41,-1.98 0.04,-2.44 -0.47,-4.83 -3.04,-5.69 -0.15,-1.52 -0.27,-3.05 -0.38,-4.55 -3.2,-0.38 -5.61,1.81 -7.41,4.15 0.51,2.62 1.27,5.37 0.05,7.9 0.37,0.15 1.1,0.47 1.47,0.63 1.1,2.44 2.29,4.85 3.52,7.24 -0.3,0.45 -0.91,1.33 -1.21,1.78 0.6,0.53 1.2,1.06 1.81,1.6 -1.12,0.81 -2.23,1.63 -3.35,2.42 -1.12,0.87 -2.45,1.51 -3.9,1.28 -4.25,-0.35 -8.44,-1.15 -12.66,-1.71 -5.59,-3.36 -12.18,-2.17 -18.36,-2.63 -4.76,-0.28 -9.55,-0.86 -14.31,-0.12 -7.16582,-1.47521 -13.74564,-2.23281 -20.55,-3.39 -6.13,-0.97 -11.98,-3.26 -18.13,-4.01 -8.15,2.2 -16.6,4.24 -25.09,2.85 -0.75,-1.38 -1.5,-2.75 -2.24,-4.11 -6.11,-1.08 -12.33,-1.58 -18.37,-3.03 -0.02,-0.59 -0.06,-1.78 -0.07,-2.37 1.79,-0.94 3.75,-1.44 5.79,-1.47 12.3,-0.94 24.57,-4.33 36.94,-2.3 4.78,0.44 9.25,2.89 14.13,2.37 5.65,-0.3 11.32,-0.05 16.96,-0.52 8.94,-1.02 17.95,-0.51 26.93,-0.65 7.71,-0.25 15.33,1.61 23.05,1.01 1.51,0.17 3.65,-0.63 4.51,1.09 -0.18,-5.75 5.2,-8.33 9.56,-10.46 3.66,-9.84 13.17,-17.86 23.95,-17.85 6.88,-0.55 13.51,2.7 18.43,7.33 0.94,0.06 1.89,0.13 2.84,0.2 0.74,-2.01 1.52,-4.06 3.25,-5.44 0.1,1.53 0.21,3.06 0.36,4.59 0.89,1.55 2.79,1.32 4.31,1.64 0.85,1.36 1.71,2.71 2.56,4.08 1.94,-0.03 3.67,-0.89 5.33,-1.81 0.5,-0.24 1.5,-0.71 2,-0.95 2.55,0.5 5.16,0.58 7.68,1.24 3.3,0.84 5.99,3.24 9.42,3.68 m -38.93,-3.43 c -5.33,3.57 -8.56,9.81 -14.64,12.37 -5.08,2.94 -11.09,3 -16.6,4.6 0.11,3.9 3.19,9.76 7.82,7.7 7.14,-1.2 14.14,-3.73 19.76,-8.41 1.84,2.61 4.2,-0.12 5.89,-1.36 0.94,1.06 1.87,2.12 2.87,3.15 l -1.01,-0.1 c 0.04,1.11 0.3,2.2 0.75,3.23 0.35,-0.22 1.06,-0.66 1.41,-0.88 0.05,-0.53 0.16,-1.59 0.21,-2.12 l 2.04,-1.36 0.92,2.6 c 0.46,-1.4 0.84,-2.82 1.04,-4.27 l -2.2,-0.04 0.12,0.91 c -1.42,-0.46 -2.55,-1.3 -3.38,-2.51 2.33,-1.4 3.15,-4.78 -0.15,-5.71 0.81,-4.67 5.96,-0.77 8.96,-1.75 1.85,0.44 1.38,-1.7 1.36,-2.71 -1.08,-0.36 -2.16,-0.72 -3.22,-1.1 -2.22,0.26 -4.43,0.6 -6.62,1.04 -0.79,-2.38 -2.67,-4.21 -5.33,-3.28 m 30.07,4.95 c -0.16,1.33 -0.12,2.67 0.02,4.01 0.47,0.27 1.42,0.82 1.89,1.1 1.61,-0.03 3.28,0.32 4.86,-0.08 1.35,-0.75 1.57,-2.19 1.35,-3.57 -2.62,-0.96 -5.27,-2.1 -8.12,-1.46 m -14.07,3.15 c -0.04,1.07 -0.07,2.15 -0.09,3.23 1.77,0.04 3.54,-0.02 5.31,-0.27 -0.04,-0.89 -0.11,-1.77 -0.21,-2.64 -1.56,-0.7 -3.36,-0.25 -5.01,-0.32 m -3.86,4.12 c 0.09,0.99 0.2,1.99 0.31,3 1.24,-0.76 2.85,-1.45 2.01,-3.19 -0.58,0.05 -1.74,0.14 -2.32,0.19 m 5.67,4.78 c -0.88,1.26 -0.65,1.96 0.69,2.1 0.88,-1.29 0.65,-1.99 -0.69,-2.1 m -114.06,2.82 c -0.48,1.56 0.12,2.07 1.81,1.53 0.49,-1.57 -0.12,-2.08 -1.81,-1.53 m 96.23,1.14 c 0.02,0.57 0.06,1.72 0.09,2.29 l 2.04,-0.16 c 0.07,-0.51 0.22,-1.55 0.29,-2.07 -0.6,-0.01 -1.81,-0.04 -2.42,-0.06 m -104.14,1.02 c -1.08,1.41 1.48,2.72 2.41,1.51 0.81,-1.34 -1.49,-2.59 -2.41,-1.51 m 99.94,0.71 c -0.37,1.58 0.73,4.34 2.56,2.77 -0.11,-0.52 -0.33,-1.56 -0.44,-2.07 -0.53,-0.18 -1.59,-0.52 -2.12,-0.7 m -3.66,4.2 c 0.78,0.46 1.56,0.93 2.35,1.41 -0.36,-1.25 -0.71,-2.5 -1.08,-3.74 -1.05,0.37 -1.04,1.45 -1.27,2.33 m -92.03,-1.05 c 0.27,1.27 1.04,1.49 2.33,0.67 -0.28,-1.28 -1.05,-1.51 -2.33,-0.67 m 88.13,1.12 v 2.25 c 0.6,0.04 1.79,0.14 2.38,0.18 -0.12,-0.55 -0.38,-1.65 -0.51,-2.2 -0.46,-0.06 -1.4,-0.17 -1.87,-0.23 m -8.03,5.26 c 2.06,0.57 0.65,-2.31 0.85,-3.41 -1.02,0.72 -1.89,2.34 -0.85,3.41 z"
         id="path2711"
         inkscape:connector-curvature="0"
         style="fill:#000000;fill-opacity:1;stroke:#000000;stroke-width:0.20594268;stroke-opacity:1;stroke-miterlimit:4;stroke-dasharray:none"
         sodipodi:nodetypes="cccccccccccccccccccccccccccccccccccccccccccccccccccccccccccccccccccccccccccccccccccccccccccccccccccccccccccccccccccccccccccccccccccccccccccccccccccccccccccccccccccccccccccccccccccccccccccccccccc" />
    </g>
    <g
       style="stroke:#000000;stroke-width:0.20594268;stroke-opacity:1;fill:#000000;fill-opacity:1;stroke-miterlimit:4;stroke-dasharray:none"
       id="#3a2614ff"
       transform="matrix(0.01942288,0,0,0.01942288,-2.1587753,-1.1909434)">
      <path
         d="m 353.99,419.39 c 0.94,-1.1 1.86,-2.22 2.87,-3.26 0.48,0.19 1.46,0.57 1.95,0.75 -1.19,1.77 -2.09,3.76 -3.56,5.33 -2.92,0.68 -5.97,0.44 -8.94,0.64 -0.05,0.76 -0.13,2.27 -0.18,3.03 -0.5,0.24 -1.5,0.71 -2,0.95 -0.33,-0.94 -0.67,-1.86 -1.02,-2.78 -2.29,-3.58 -7.60377,-3.82497 -11.56377,-3.75497 L 331.57,418.33 c 6.65,-0.27 13.54,3.56 20.19,1.57 0.73,-0.21 1.47,-0.38 2.23,-0.51 z"
         id="path2714"
         inkscape:connector-curvature="0"
         style="fill:#000000;stroke:#000000;stroke-width:0.20594268;stroke-opacity:1;fill-opacity:1;stroke-miterlimit:4;stroke-dasharray:none"
         sodipodi:nodetypes="cccccccccccc" />
    </g>
    <g
       style="stroke:#000000;stroke-width:0.20594268;stroke-opacity:1;fill:#000000;fill-opacity:1;stroke-miterlimit:4;stroke-dasharray:none"
       id="#080507ff"
       transform="matrix(0.01942288,0,0,0.01942288,-2.1587753,-1.1909434)">
      <path
         d="m 638.56,441.41 c 4.29,-2.82 8.28,-6.48 13.47,-7.53 4.24,-1.22 8,1.66 11.51,3.58 7.25,6.48 17.21,8.43 26.62,9.19 l -0.5,1.81 c -0.46,0.06 -1.39,0.19 -1.85,0.25 3.61,2.43 8.1,2.76 12.25,3.68 7.45,1.63 15.09,1.23 22.66,1.21 l 0.03,1.21 c -3.1,0.54 -6.35,0.36 -9.29,1.64 -3.27,1.52 -6.96,-0.22 -10.35,0.84 -4.72,1.18 -9.61,1.22 -14.36,2.12 -7.09,2.52 -14.65,0.29 -21.93,0.97 -3.16,0.32 -6.33,0.33 -9.48,0.26 -0.01,-0.26 -0.01,-0.78 -0.01,-1.04 1.33,-0.29 2.67,-0.58 4.01,-0.9 0.17,-1.23 0.24,-2.45 0.16,-3.67 -1.16,-3.28 -4.82,-4.62 -6.06,-7.86 -6.17,0.03 -11.92,-2.2 -16.88,-5.76 m 41.82,8.63 c 0.27,1.3 1.03,1.54 2.28,0.71 -0.29,-1.31 -1.05,-1.55 -2.28,-0.71 z"
         id="path2738"
         inkscape:connector-curvature="0"
         style="fill:#000000;stroke:#000000;stroke-width:0.20594268;stroke-opacity:1;fill-opacity:1;stroke-miterlimit:4;stroke-dasharray:none" />
    </g>
    <g
       style="stroke:#000000;stroke-width:0.20594268;stroke-opacity:1;fill:#000000;fill-opacity:1;stroke-miterlimit:4;stroke-dasharray:none"
       id="#241007ff"
       transform="matrix(0.01942288,0,0,0.01942288,-2.1587753,-1.1909434)">
      <path
         d="m 528.59,437.72 c 0.97,-0.81 1.98,-1.59 2.98,-2.38 2.9,2.62 6.89,0.88 10.33,1.71 2.06,0.79 4.48,2.25 4.18,4.85 -5.73,-1.8 -11.58,-3.18 -17.49,-4.18 z"
         id="path2741"
         inkscape:connector-curvature="0"
         style="fill:#000000;stroke:#000000;stroke-width:0.20594268;stroke-opacity:1;fill-opacity:1;stroke-miterlimit:4;stroke-dasharray:none" />
    </g>
    <g
       style="stroke:#000000;stroke-width:0.20594268;stroke-opacity:1;fill:#000000;fill-opacity:1;stroke-miterlimit:4;stroke-dasharray:none"
       id="#0f0d16ff"
       transform="matrix(0.01942288,0,0,0.01942288,-2.1587753,-1.1909434)">
      <path
         d="m 320.64,443.63 c 3.22,-2.38 6.37,-5.03 8.51,-8.46 3.3,0.93 2.48,4.31 0.15,5.71 0.83,1.21 1.96,2.05 3.38,2.51 0.03,0.2 0.09,0.6 0.12,0.8 l -2.04,1.36 c -0.34,-0.04 -1.02,-0.1 -1.36,-0.13 -1,-1.03 -1.93,-2.09 -2.87,-3.15 -1.69,1.24 -4.05,3.97 -5.89,1.36 z"
         id="path2744"
         inkscape:connector-curvature="0"
         style="fill:#000000;stroke:#000000;stroke-width:0.20594268;stroke-opacity:1;fill-opacity:1;stroke-miterlimit:4;stroke-dasharray:none" />
    </g>
    <g
       style="stroke:#000000;stroke-width:0.20594268;stroke-opacity:1;fill:#000000;fill-opacity:1;stroke-miterlimit:4;stroke-dasharray:none"
       id="#241205ff"
       transform="matrix(0.01942288,0,0,0.01942288,-2.1587753,-1.1909434)">
      <path
         d="m 555.27,440.4 c 4.16,-0.77 8.26,-1.86 12.29,-3.17 5.1,0.98 10.27,1.77 15.49,1.5 11.34,-0.87 21.84,4.83 33.07,5.17 0.42,0.12 1.26,0.36 1.67,0.48 0.73,0.48 2.18,1.43 2.91,1.9 -2.63,-0.09 -5.26,-0.25 -7.88,-0.45 -5.01,-1.16 -9.97,-2.59 -15.07,-3.25 -12.96,-2.56 -26.47,-3.41 -39.4,-0.26 -1.03,-0.65 -2.06,-1.29 -3.08,-1.92 z"
         id="path2747"
         inkscape:connector-curvature="0"
         style="fill:#000000;stroke:#000000;stroke-width:0.20594268;stroke-opacity:1;fill-opacity:1;stroke-miterlimit:4;stroke-dasharray:none" />
    </g>
    <g
       style="stroke:#000000;stroke-width:0.20594268;stroke-opacity:1;fill:#000000;fill-opacity:1;stroke-miterlimit:4;stroke-dasharray:none"
       id="#b3997fff"
       transform="matrix(0.01942288,0,0,0.01942288,-2.1587753,-1.1909434)">
      <path
         d="m 597.75,442.58 c 5.1,0.66 10.06,2.09 15.07,3.25 l 0.8,1.19 c -5.3,-1.36 -11.08,-1.65 -15.87,-4.44 z"
         id="path2753"
         inkscape:connector-curvature="0"
         style="fill:#000000;stroke:#000000;stroke-width:0.20594268;stroke-opacity:1;fill-opacity:1;stroke-miterlimit:4;stroke-dasharray:none" />
    </g>
    <g
       style="stroke:none;stroke-width:3.9007678;stroke-opacity:1;fill:none"
       id="#474747ff"
       transform="matrix(0.01942288,0,0,0.01942288,-2.1587753,-1.1909434)">
      <path
         d="m 342.11,444.37 c 1.34,0.11 1.57,0.81 0.69,2.1 -1.34,-0.14 -1.57,-0.84 -0.69,-2.1 z"
         id="path2762"
         inkscape:connector-curvature="0"
         style="fill:none;stroke:none;stroke-width:3.9007678;stroke-opacity:1" />
    </g>
    <g
       style="stroke:#000000;stroke-width:0.20594268;stroke-opacity:1;fill:#000000;fill-opacity:1;stroke-miterlimit:4;stroke-dasharray:none"
       id="#5c5345ff"
       transform="matrix(0.01942288,0,0,0.01942288,-2.1587753,-1.1909434)">
      <path
         d="m 617.79,444.38 c 5.41,0.02 10.97,0.91 16.22,-0.83 -0.29,0.43 -0.88,1.29 -1.18,1.72 -3.92,0.25 -7.85,0.17 -11.75,0.53 -0.29,0.56 -0.86,1.69 -1.14,2.25 -2.12,-0.28 -4.24,-0.59 -6.32,-1.03 l -0.8,-1.19 c 2.62,0.2 5.25,0.36 7.88,0.45 -0.73,-0.47 -2.18,-1.42 -2.91,-1.9 z"
         id="path2768"
         inkscape:connector-curvature="0"
         style="fill:#000000;stroke:#000000;stroke-width:0.20594268;stroke-opacity:1;fill-opacity:1;stroke-miterlimit:4;stroke-dasharray:none" />
    </g>
    <g
       style="stroke:#000000;stroke-width:0.20594268;stroke-opacity:1;fill:#000000;fill-opacity:1;stroke-miterlimit:4;stroke-dasharray:none"
       id="#0f0707ff"
       transform="matrix(0.01942288,0,0,0.01942288,-2.1587753,-1.1909434)">
      <path
         d="m 634.01,443.55 c 0.21,0.53 0.62,1.59 0.82,2.12 -0.54,1.17 -1.05,2.37 -1.56,3.56 0.5,0.3 1.49,0.9 1.98,1.19 -0.65,1.05 -1.28,2.13 -1.91,3.19 2.29,0.83 4.85,1.46 6.33,3.6 -1.9,-0.34 -3.84,-0.38 -5.72,0.13 -0.22,-0.18 -0.66,-0.54 -0.88,-0.72 -3.2,-3.43 -8.51,-2.11 -12.69,-2.06 -8.13,-0.24 -16.13,1.24 -24.04,2.95 0.17,-1.8 -0.03,-3.61 -0.44,-5.36 -1.22,0.19 -2.42,0.39 -3.62,0.59 0.08,-0.5 0.25,-1.51 0.34,-2.01 7.6,-3.12 16.09,0.27 23.8,-2.38 1.16,-0.13 2.34,-0.22 3.52,-0.3 0.28,-0.56 0.85,-1.69 1.14,-2.25 3.9,-0.36 7.83,-0.28 11.75,-0.53 0.3,-0.43 0.89,-1.29 1.18,-1.72 z"
         id="path2771"
         inkscape:connector-curvature="0"
         style="fill:#000000;stroke:#000000;stroke-width:0.20594268;stroke-opacity:1;fill-opacity:1;stroke-miterlimit:4;stroke-dasharray:none" />
    </g>
    <g
       style="stroke:#000000;stroke-width:0.20594268;stroke-opacity:1;fill:#000000;fill-opacity:1;stroke-miterlimit:4;stroke-dasharray:none"
       id="#372011ff"
       transform="matrix(0.01942288,0,0,0.01942288,-2.1587753,-1.1909434)">
      <path
         d="m 700.07,445.75 c 5.33,-0.12 10.63,-0.75 15.93,-1.34 1.49,-0.34 2.88,0.36 3.98,1.32 -0.32,0.53 -0.95,1.59 -1.27,2.12 -1.83,-0.65 -3.65,-1.67 -5.64,-1.41 -7.79,0.77 -15.61,1.35 -23.41,2.02 l 0.5,-1.81 c 3.31,-0.21 6.59,-0.77 9.91,-0.9 z"
         id="path2774"
         inkscape:connector-curvature="0"
         style="fill:#000000;stroke:#000000;stroke-width:0.20594268;stroke-opacity:1;fill-opacity:1;stroke-miterlimit:4;stroke-dasharray:none" />
    </g>
    <g
       style="stroke:#000000;stroke-width:0.20594268;stroke-opacity:1;fill:#000000;fill-opacity:1;stroke-miterlimit:4;stroke-dasharray:none"
       id="#261403ff"
       transform="matrix(0.01942288,0,0,0.01942288,-2.1587753,-1.1909434)">
      <path
         d="m 283.72,449.55 c -0.75,-1.19 -0.26,-2.46 0.1,-3.66 2.7,4.82 4.51,10.51 9.26,13.8 0.76,-0.2 1.53,-0.39 2.3,-0.57 -0.32,-1.14 -0.6,-2.27 -0.84,-3.41 1.17,1.12 2.34,2.26 3.41,3.5 0.26,0.29 0.79,0.86 1.05,1.15 1.33,-0.08 2.09,-0.76 2.28,-2.05 0.74,1.03 1.15,2.41 2.26,3.14 3.27,0.76 7.36,-0.01 9.54,3.2 -1.04,0.02 -2.07,1.14 -3.15,0.59 -2.99,-1.39 -6.45,-0.53 -9.44,-1.87 -1.63,-0.67 -3.16,-1.54 -4.72,-2.33 -0.91,1.43 -1.77,2.88 -2.59,4.37 -1.76,0.36 -3.53,0.73 -5.29,1.09 -2.69,-2.03 -5.17,-5.22 -8.98,-4.24 1.12,-0.79 2.23,-1.61 3.35,-2.42 -0.61,-0.54 -1.21,-1.07 -1.81,-1.6 0.3,-0.45 0.91,-1.33 1.21,-1.78 0.98,1.59 2,3.15 3.21,4.57 1.44,2.47 3.98,3.22 6.66,2.47 0,-0.5 -0.01,-1.49 -0.02,-1.98 -0.13,-0.1 -0.41,-0.29 -0.55,-0.38 l -1.21,-0.83 c -2.41,-3.34 -4.48,-6.95 -6.03,-10.76 z"
         id="path2786"
         inkscape:connector-curvature="0"
         style="fill:#000000;stroke:#000000;stroke-width:0.20594268;stroke-opacity:1;fill-opacity:1;stroke-miterlimit:4;stroke-dasharray:none" />
    </g>
    <g
       style="stroke:#000000;stroke-width:0.20594268;stroke-opacity:1;fill:#000000;fill-opacity:1;stroke-miterlimit:4;stroke-dasharray:none"
       id="#11111fff"
       transform="matrix(0.01942288,0,0,0.01942288,-2.1587753,-1.1909434)">
      <path
         d="m 582.39,447.07 c 1.23,-0.59 2.47,-1.17 3.73,-1.72 10.05,1.32 20.09,3.61 30.3,3 -7.71,2.65 -16.2,-0.74 -23.8,2.38 -1.05,-0.39 -2.1,-0.8 -3.12,-1.2 -2.23,-1.19 -4.69,-1.83 -7.11,-2.46 z"
         id="path2789"
         inkscape:connector-curvature="0"
         style="fill:#000000;stroke:#000000;stroke-width:0.20594268;stroke-opacity:1;fill-opacity:1;stroke-miterlimit:4;stroke-dasharray:none" />
    </g>
    <g
       style="stroke:#000000;stroke-width:0.20594268;stroke-opacity:1;fill:#000000;fill-opacity:1;stroke-miterlimit:4;stroke-dasharray:none"
       id="#270a03ff"
       transform="matrix(0.01942288,0,0,0.01942288,-2.1587753,-1.1909434)">
      <path
         d="m 718.71,447.85 c 0.32,-0.53 0.95,-1.59 1.27,-2.12 2.47,2.3 4.75,4.81 7,7.33 1.32,0.42 2.66,0.89 3.95,1.46 -4.05,2.99 -9.42,2.44 -14.1,3.7 -8.95,0.21 -17.8,1.59 -26.64,2.9 -14.11,0.81 -28.39,1.48 -42.39,-0.88 -9.13,-1.83 -18.52,-1 -27.73,-0.25 -8.67,0.43 -17.16,2.4 -25.78,3.39 -10.97,2.24 -22.37,1.17 -33.22,3.99 l 0.17,-1.12 c 0.12,-1.05 0.35,-3.13 0.47,-4.18 -1.94,0.12 -3.82,0.54 -5.65,1.13 -8.15,-1.03 -16.44,-0.89 -24.49,0.87 -4.06,0.38 -8.13,0.34 -12.19,0.2 2.24,-2.43 5.69,-1.17 8.41,-2.46 1.64,-0.67 3.21,-1.51 4.77,-2.36 0.26,0.64 0.53,1.29 0.81,1.94 4.99,-0.73 10.17,0.21 15.03,-1.36 5.98,0.97 12.89,-0.91 17.8,3.76 -1.42,0.31 -2.84,0.62 -4.24,0.94 1.96,0.06 4.07,0.21 5.64,-1.22 0.55,0.41 1.11,0.83 1.68,1.26 3.02,-0.29 5.96,-1.11 8.77,-2.28 3.72,0.19 7.49,0.34 11.13,-0.66 7,-0.71 13.99,-1.62 20.86,-3.14 7.67,-0.72 15.41,-0.78 23.03,-2.07 0.22,0.18 0.66,0.54 0.88,0.72 1.88,-0.51 3.82,-0.47 5.72,-0.13 3.45,0.27 7.01,0.24 10.16,1.91 2.01,1.18 4.18,0.24 5.98,-0.86 1.83,0.21 3.68,0.31 5.53,0.44 -1.34,0.32 -2.68,0.61 -4.01,0.9 0,0.26 0,0.78 0.01,1.04 3.15,0.07 6.32,0.06 9.48,-0.26 7.28,-0.68 14.84,1.55 21.93,-0.97 4.75,-0.9 9.64,-0.94 14.36,-2.12 3.39,-1.06 7.08,0.68 10.35,-0.84 2.94,-1.28 6.19,-1.1 9.29,-1.64 l -0.03,-1.21 c -0.02,-0.51 -0.08,-1.54 -0.11,-2.05 -1.33,-1.2 -2.64,-2.44 -3.9,-3.7 z"
         id="path2792"
         inkscape:connector-curvature="0"
         style="fill:#000000;stroke:#000000;stroke-width:0.20594268;stroke-opacity:1;fill-opacity:1;stroke-miterlimit:4;stroke-dasharray:none" />
    </g>
    <g
       style="stroke:#000000;stroke-width:0.20594268;stroke-opacity:1;stroke-miterlimit:4;stroke-dasharray:none;fill:#000000;fill-opacity:1"
       id="#181b16ff"
       transform="matrix(0.01942288,0,0,0.01942288,-2.1587753,-1.1909434)">
      <path
         d="m 587.35,449.96 c 0.54,-0.11 1.61,-0.32 2.15,-0.43 1.02,0.4 2.07,0.81 3.12,1.2 -0.09,0.5 -0.26,1.51 -0.34,2.01 1.2,-0.2 2.4,-0.4 3.62,-0.59 0.41,1.75 0.61,3.56 0.44,5.36 -1.98,0.41 -3.95,0.82 -5.92,1.25 -0.78,-3.01 -1.57,-6.05 -3.07,-8.8 z"
         id="path2807"
         inkscape:connector-curvature="0"
         style="fill:#000000;stroke:#000000;stroke-width:0.20594268;stroke-opacity:1;stroke-miterlimit:4;stroke-dasharray:none;fill-opacity:1" />
    </g>
    <g
       style="stroke:#000000;stroke-width:0.20594268;stroke-opacity:1;fill:#000000;fill-opacity:1;stroke-miterlimit:4;stroke-dasharray:none"
       id="#27202aff"
       transform="matrix(0.01942288,0,0,0.01942288,-2.1587753,-1.1909434)">
      <path
         d="m 680.38,450.04 c 1.23,-0.84 1.99,-0.6 2.28,0.71 -1.25,0.83 -2.01,0.59 -2.28,-0.71 z"
         id="path2810"
         inkscape:connector-curvature="0"
         style="fill:#000000;stroke:#000000;stroke-width:0.20594268;stroke-opacity:1;fill-opacity:1;stroke-miterlimit:4;stroke-dasharray:none" />
    </g>
    <g
       style="stroke:#000000;stroke-width:0.20594268;stroke-opacity:1;fill:#000000;fill-opacity:1;stroke-miterlimit:4;stroke-dasharray:none"
       id="#17263dff"
       transform="matrix(0.01942288,0,0,0.01942288,-2.1587753,-1.1909434)">
      <path
         d="m 412.8,450.47 c 6.57,0.89 13.23,0.84 19.76,2.02 -6.05,1.06 -12.16,-0.01 -18.25,0.18 -0.37,-0.55 -1.13,-1.65 -1.51,-2.2 z"
         id="path2813"
         inkscape:connector-curvature="0"
         style="fill:#000000;stroke:#000000;stroke-width:0.20594268;stroke-opacity:1;fill-opacity:1;stroke-miterlimit:4;stroke-dasharray:none" />
    </g>
    <g
       style="stroke:#000000;stroke-width:0.20594268;stroke-opacity:1;fill:#000000;fill-opacity:1;stroke-miterlimit:4;stroke-dasharray:none"
       id="#050c16ff"
       transform="matrix(0.01942288,0,0,0.01942288,-2.1587753,-1.1909434)">
      <path
         d="m 635.25,450.42 c 3.01,1.31 6.35,1.49 9.48,2.44 4,1.08 7.53,3.32 11.08,5.4 -1.8,1.1 -3.97,2.04 -5.98,0.86 -3.15,-1.67 -6.71,-1.64 -10.16,-1.91 -1.48,-2.14 -4.04,-2.77 -6.33,-3.6 0.63,-1.06 1.26,-2.14 1.91,-3.19 z"
         id="path2816"
         inkscape:connector-curvature="0"
         style="fill:#000000;stroke:#000000;stroke-width:0.20594268;stroke-opacity:1;fill-opacity:1;stroke-miterlimit:4;stroke-dasharray:none" />
    </g>
    <g
       style="stroke:none;stroke-width:3.9007678;stroke-opacity:1;fill:none;fill-opacity:1"
       id="#746b67ff"
       transform="matrix(0.01942288,0,0,0.01942288,-2.1587753,-1.1909434)">
      <path
         d="m 284.87,461.03 c 1.94,1.07 4.22,1.79 6.09,0.11 0.14,0.09 0.42,0.28 0.55,0.38 0.01,0.49 0.02,1.48 0.02,1.98 -2.68,0.75 -5.22,0 -6.66,-2.47 z"
         id="path2834"
         inkscape:connector-curvature="0"
         style="fill:none;stroke:none;stroke-width:3.9007678;stroke-opacity:1;fill-opacity:1" />
    </g>
    <g
       style="stroke:#000000;stroke-width:0.20594268;stroke-opacity:1;fill:#000000;fill-opacity:1;stroke-miterlimit:4;stroke-dasharray:none"
       id="#281205ff"
       transform="matrix(0.01942288,0,0,0.01942288,-2.1587753,-1.1909434)">
      <path
         d="m 326.24,462.44 c 1.04,0.01 2.07,-0.04 3.11,-0.06 -0.67,0.96 -1.34,1.93 -2.01,2.9 0.51,0.28 1.53,0.84 2.05,1.12 0.08,0.5 0.24,1.51 0.32,2.01 -0.25,-0.32 -0.73,-0.96 -0.97,-1.28 -4.89,0.35 -11,2.12 -14.93,-1.75 0.52,-0.33 1.56,-1.01 2.08,-1.35 3.08,0.19 6.16,0.66 9.26,0.6 0.27,-0.55 0.82,-1.64 1.09,-2.19 z"
         id="path2840"
         inkscape:connector-curvature="0"
         style="fill:#000000;stroke:#000000;stroke-width:0.20594268;stroke-opacity:1;fill-opacity:1;stroke-miterlimit:4;stroke-dasharray:none" />
    </g>
    <g
       style="stroke:#000000;stroke-width:0.20594268;stroke-opacity:1;fill:#000000;fill-opacity:1;stroke-miterlimit:4;stroke-dasharray:none"
       id="#221d28ff"
       transform="matrix(0.01942288,0,0,0.01942288,-2.1587753,-1.1909434)">
      <path
         d="m 366.81,470.42 c 1.75,-0.1 3.5,-0.19 5.25,-0.36 -1.47,0.54 -3.6,0.35 -4.36,1.98 2.58,2.13 6.1,1.87 9.21,1.53 4.95,-0.58 10.22,0.69 14.8,-1.81 0.67,0.31 2.01,0.92 2.68,1.23 -3.93,1.58 -8.1,2.7 -12.36,2.6 -7.21,-0.13 -14.38,0.69 -21.47,1.89 -1.02,-0.34 -2.04,-0.67 -3.06,-0.98 0.07,-0.84 0.21,-2.5 0.28,-3.34 0.84,-0.64 1.7,-1.26 2.55,-1.89 0.39,0.47 1.18,1.4 1.57,1.86 0.49,-0.16 1.48,-0.48 1.97,-0.64 0.2,0.2 0.59,0.59 0.79,0.78 -1.07,0.85 -2.13,1.71 -3.18,2.59 2.17,0.07 4.47,0.2 6.39,-1.01 -0.83,-1.34 -1,-2.9 -1.06,-4.43 z"
         id="path2892"
         inkscape:connector-curvature="0"
         style="fill:#000000;stroke:#000000;stroke-width:0.20594268;stroke-opacity:1;fill-opacity:1;stroke-miterlimit:4;stroke-dasharray:none" />
    </g>
    <path
       style="fill:#000000;fill-opacity:1;stroke:#000000;stroke-width:0.004;stroke-linecap:butt;stroke-linejoin:miter;stroke-miterlimit:4;stroke-dasharray:none;stroke-opacity:1"
       d="m 4.2812689,6.9342298 c 0,0 0.071584,-0.053107 0.09794,-0.066285 0.1040079,-0.030819 0.1356447,-0.03656 0.2037522,-0.050199 0.4431272,-0.06395 0.8154056,-0.1145027 1.2412619,-0.1150365 0.00539,0.00539 0.018977,0.022172 0.022597,0.029403 -0.1420721,0.01875 -0.047428,0.010713 -0.2377117,0.00738 -0.178625,0.015451 -0.525919,0.050329 -0.7456167,0.072348 -0.02829,0.025671 -0.2930172,0.041892 -0.4385115,0.079726 -0.076801,0.072341 -0.076986,0.069699 -0.1441718,0.080827"
       id="path4612"
       inkscape:connector-curvature="0"
       sodipodi:nodetypes="ccccccccc" />
  </g>
</svg>
